<svg width="182" height="175" viewBox="0 0 182 175" fill="none" xmlns="http://www.w3.org/2000/svg">
<mask id="mask0_7_74" style="mask-type:alpha" maskUnits="userSpaceOnUse" x="35" y="33" width="99" height="102">
<path d="M59.4472 33.1818L84.0566 110.54H85.0012L109.66 33.1818H133.524L98.4245 135H70.683L35.5339 33.1818H59.4472Z" fill="#EB4432"/>
</mask>
<g mask="url(#mask0_7_74)">
<rect x="19" y="40" width="135" height="36" fill="#EB4432"/>
</g>
<mask id="mask1_7_74" style="mask-type:alpha" maskUnits="userSpaceOnUse" x="35" y="33" width="99" height="102">
<path d="M59.4472 33.1818L84.0566 110.54H85.0012L109.66 33.1818H133.524L98.4245 135H70.683L35.5339 33.1818H59.4472Z" fill="#EB4432"/>
</mask>
<g mask="url(#mask1_7_74)">
<rect x="7" y="91" width="164.855" height="51.8518" fill="#EB4432"/>
</g>
<path d="M44.845 78.744H51.517V80.724H47.497V82.14H50.953V84.036H47.497V87H44.845V78.744ZM61.0689 83.676C61.0689 84.804 60.7129 85.664 60.0009 86.256C59.2889 86.848 58.2769 87.144 56.9649 87.144C55.6529 87.144 54.6369 86.848 53.9169 86.256C53.2049 85.664 52.8489 84.804 52.8489 83.676V78.744H55.5009V83.64C55.5009 84.104 55.6249 84.476 55.8729 84.756C56.1209 85.028 56.4809 85.164 56.9529 85.164C57.4249 85.164 57.7849 85.024 58.0329 84.744C58.2889 84.464 58.4169 84.096 58.4169 83.64V78.744H61.0689V83.676ZM62.845 78.744H65.497V84.888H69.733V87H62.845V78.744ZM70.8489 78.744H73.5009V84.888H77.7369V87H70.8489V78.744ZM86.3169 78.6C87.3729 78.6 88.2409 78.816 88.9209 79.248C89.6009 79.672 89.9489 80.304 89.9649 81.144V81.288H87.4809V81.24C87.4809 81 87.3929 80.8 87.2169 80.64C87.0409 80.48 86.7729 80.4 86.4129 80.4C86.0609 80.4 85.7889 80.452 85.5969 80.556C85.4129 80.66 85.3209 80.788 85.3209 80.94C85.3209 81.156 85.4489 81.316 85.7049 81.42C85.9609 81.524 86.3729 81.632 86.9409 81.744C87.6049 81.88 88.1489 82.024 88.5729 82.176C89.0049 82.32 89.3809 82.56 89.7009 82.896C90.0209 83.232 90.1849 83.688 90.1929 84.264C90.1929 85.24 89.8609 85.964 89.1969 86.436C88.5409 86.908 87.6609 87.144 86.5569 87.144C85.2689 87.144 84.2649 86.928 83.5449 86.496C82.8329 86.064 82.4769 85.3 82.4769 84.204H84.9849C84.9849 84.62 85.0929 84.9 85.3089 85.044C85.5249 85.18 85.8609 85.248 86.3169 85.248C86.6529 85.248 86.9289 85.212 87.1449 85.14C87.3689 85.068 87.4809 84.92 87.4809 84.696C87.4809 84.496 87.3569 84.348 87.1089 84.252C86.8689 84.148 86.4729 84.04 85.9209 83.928C85.2489 83.784 84.6929 83.636 84.2529 83.484C83.8129 83.324 83.4289 83.064 83.1009 82.704C82.7729 82.344 82.6089 81.856 82.6089 81.24C82.6089 80.336 82.9569 79.672 83.6529 79.248C84.3569 78.816 85.2449 78.6 86.3169 78.6ZM96.2611 80.856V87H93.6091V80.856H90.8971V78.744H98.9611V80.856H96.2611ZM104.881 87L104.533 85.836H101.641L101.293 87H98.5809L101.593 78.744H104.677L107.689 87H104.881ZM102.193 83.988H103.981L103.117 81.048H103.069L102.193 83.988ZM112.414 78.6C113.638 78.6 114.606 78.908 115.318 79.524C116.03 80.132 116.386 81.004 116.386 82.14H113.854C113.854 81.66 113.726 81.28 113.47 81C113.222 80.72 112.866 80.58 112.402 80.58C111.866 80.58 111.47 80.748 111.214 81.084C110.966 81.42 110.842 81.888 110.842 82.488V83.256C110.842 83.848 110.966 84.316 111.214 84.66C111.47 84.996 111.858 85.164 112.378 85.164C112.89 85.164 113.278 85.032 113.542 84.768C113.806 84.504 113.938 84.132 113.938 83.652H116.386C116.386 84.78 116.038 85.644 115.342 86.244C114.654 86.844 113.678 87.144 112.414 87.144C111.006 87.144 109.938 86.784 109.21 86.064C108.49 85.344 108.13 84.28 108.13 82.872C108.13 81.464 108.49 80.4 109.21 79.68C109.938 78.96 111.006 78.6 112.414 78.6ZM123.41 78.744H126.698L123.734 82.14L126.758 87H123.626L121.91 83.976L120.47 85.152V87H117.818V78.744H120.47V82.272L123.41 78.744Z" fill="#0A192F"/>
</svg>
