<svg width="126" height="169" viewBox="0 0 126 169" fill="none" xmlns="http://www.w3.org/2000/svg">
<rect x="0.75" y="21.75" width="124.5" height="126.5" fill="white" stroke="#0A192F" stroke-width="1.5"/>
<path d="M37.2443 33.1818L61.8537 110.54H62.7983L87.4574 33.1818H111.321L76.2216 135H48.4801L13.331 33.1818H37.2443Z" fill="#EB4432"/>
<rect x="10" y="71" width="108" height="14" fill="white"/>
<path d="M30.6055 82V74H36.0664V75.5703H32.5391V77.2109H35.7188V78.7852H32.5391V82H30.6055ZM41.8799 74H43.8096V79.1602C43.8096 79.7565 43.6676 80.276 43.3838 80.7187C43.0999 81.1589 42.7041 81.5 42.1963 81.7422C41.6885 81.9818 41.0986 82.1016 40.4268 82.1016C39.7471 82.1016 39.1533 81.9818 38.6455 81.7422C38.1377 81.5 37.7432 81.1589 37.4619 80.7187C37.1807 80.276 37.04 79.7565 37.04 79.1602V74H38.9736V78.9922C38.9736 79.2682 39.0335 79.5143 39.1533 79.7305C39.2757 79.9466 39.4463 80.1159 39.665 80.2383C39.8838 80.3607 40.1377 80.4219 40.4268 80.4219C40.7158 80.4219 40.9684 80.3607 41.1846 80.2383C41.4033 80.1159 41.5739 79.9466 41.6963 79.7305C41.8187 79.5143 41.8799 79.2682 41.8799 78.9922V74ZM45.0215 82V74H46.9551V80.4297H50.2832V82H45.0215ZM51.2842 82V74H53.2178V80.4297H56.5459V82H51.2842ZM64.2344 76.3984C64.2083 76.112 64.0924 75.8893 63.8867 75.7305C63.6836 75.569 63.3932 75.4883 63.0156 75.4883C62.7656 75.4883 62.5573 75.5208 62.3906 75.5859C62.224 75.651 62.099 75.7409 62.0156 75.8555C61.9323 75.9674 61.8893 76.0964 61.8867 76.2422C61.8815 76.362 61.9049 76.4674 61.957 76.5586C62.0117 76.6497 62.0898 76.7305 62.1914 76.8008C62.2956 76.8685 62.4206 76.9284 62.5664 76.9805C62.7122 77.0326 62.8763 77.0781 63.0586 77.1172L63.7461 77.2734C64.1419 77.3594 64.4909 77.474 64.793 77.6172C65.0977 77.7604 65.3529 77.931 65.5586 78.1289C65.7669 78.3268 65.9245 78.5547 66.0313 78.8125C66.138 79.0703 66.1927 79.3594 66.1953 79.6797C66.1927 80.1849 66.0651 80.6185 65.8125 80.9805C65.5599 81.3424 65.1966 81.6198 64.7227 81.8125C64.2513 82.0052 63.6823 82.1016 63.0156 82.1016C62.3464 82.1016 61.763 82.0013 61.2656 81.8008C60.7682 81.6003 60.3815 81.2956 60.1055 80.8867C59.8294 80.4779 59.6875 79.9609 59.6797 79.3359H61.5313C61.5469 79.5938 61.6159 79.8086 61.7383 79.9805C61.8607 80.1523 62.0286 80.2826 62.2422 80.3711C62.4583 80.4596 62.7083 80.5039 62.9922 80.5039C63.2526 80.5039 63.474 80.4687 63.6563 80.3984C63.8411 80.3281 63.9831 80.2305 64.082 80.1055C64.181 79.9805 64.2318 79.8372 64.2344 79.6758C64.2318 79.5247 64.1849 79.3958 64.0938 79.2891C64.0026 79.1797 63.862 79.0859 63.6719 79.0078C63.4844 78.9271 63.2448 78.8529 62.9531 78.7852L62.1172 78.5898C61.4245 78.431 60.8789 78.1745 60.4805 77.8203C60.082 77.4635 59.8841 76.9818 59.8867 76.375C59.8841 75.8802 60.0169 75.4466 60.2852 75.0742C60.5534 74.7018 60.9245 74.4115 61.3984 74.2031C61.8724 73.9948 62.4128 73.8906 63.0195 73.8906C63.6393 73.8906 64.1771 73.9961 64.6328 74.207C65.0911 74.4154 65.4466 74.7083 65.6992 75.0859C65.9518 75.4635 66.0807 75.901 66.0859 76.3984H64.2344ZM66.9102 75.5703V74H73.6719V75.5703H71.2461V82H69.3398V75.5703H66.9102ZM75.3477 82H73.2695L75.9688 74H78.543L81.2422 82H79.1641L77.2852 76.0156H77.2227L75.3477 82ZM75.0703 78.8516H79.4141V80.3203H75.0703V78.8516ZM88.9893 76.8984H87.0361C87.0101 76.6979 86.9567 76.5169 86.876 76.3555C86.7952 76.194 86.6885 76.056 86.5557 75.9414C86.4229 75.8268 86.2653 75.7396 86.083 75.6797C85.9033 75.6172 85.7041 75.5859 85.4854 75.5859C85.0973 75.5859 84.7627 75.681 84.4814 75.8711C84.2028 76.0612 83.988 76.3359 83.8369 76.6953C83.6885 77.0547 83.6143 77.4896 83.6143 78C83.6143 78.5312 83.6898 78.9766 83.8408 79.3359C83.9945 79.6927 84.2093 79.9622 84.4854 80.1445C84.764 80.3242 85.0934 80.4141 85.4736 80.4141C85.6872 80.4141 85.8812 80.3867 86.0557 80.332C86.2327 80.2773 86.3877 80.1979 86.5205 80.0938C86.6559 79.987 86.7666 79.8581 86.8525 79.707C86.9411 79.5534 87.0023 79.3802 87.0361 79.1875L88.9893 79.1992C88.9554 79.5534 88.8525 79.9023 88.6807 80.2461C88.5114 80.5898 88.2783 80.9036 87.9814 81.1875C87.6846 81.4687 87.3226 81.6927 86.8955 81.8594C86.471 82.026 85.984 82.1094 85.4346 82.1094C84.7106 82.1094 84.0622 81.9505 83.4893 81.6328C82.9189 81.3125 82.4684 80.8464 82.1377 80.2344C81.807 79.6224 81.6416 78.8776 81.6416 78C81.6416 77.1198 81.8096 76.3737 82.1455 75.7617C82.4814 75.1497 82.9359 74.6849 83.5088 74.3672C84.0817 74.0495 84.7236 73.8906 85.4346 73.8906C85.9189 73.8906 86.3669 73.9583 86.7783 74.0938C87.1898 74.2266 87.5518 74.4219 87.8643 74.6797C88.1768 74.9349 88.4307 75.2487 88.626 75.6211C88.8213 75.9935 88.9424 76.4193 88.9893 76.8984ZM90.0957 82V74H92.0293V77.3828H92.1348L94.7793 74H97.0566L94.2207 77.5703L97.1074 82H94.7949L92.8027 78.8555L92.0293 79.832V82H90.0957Z" fill="#0A192F"/>
</svg>
